<mxfile host="Electron" modified="2023-11-19T16:52:08.553Z" agent="Mozilla/5.0 (X11; Linux x86_64) AppleWebKit/537.36 (KHTML, like Gecko) draw.io/22.1.2 Chrome/114.0.5735.289 Electron/25.9.4 Safari/537.36" etag="s-ky8jqMvSfVLWpglpKR" version="22.1.2" type="device">
  <diagram name="Page-1" id="55a83fd1-7818-8e21-69c5-c3457e3827bb">
    <mxGraphModel dx="2534" dy="1688" grid="1" gridSize="10" guides="1" tooltips="1" connect="1" arrows="1" fold="1" page="1" pageScale="1" pageWidth="1100" pageHeight="850" background="none" math="0" shadow="0">
      <root>
        <mxCell id="0" />
        <mxCell id="1" parent="0" />
        <mxCell id="nfSVYTPHnD-InLTNziO6-2" value="" style="ellipse;shape=cloud;whiteSpace=wrap;html=1;fillColor=#f8cecc;strokeColor=#b85450;" vertex="1" parent="1">
          <mxGeometry x="-60" y="450" width="260" height="180" as="geometry" />
        </mxCell>
        <mxCell id="nfSVYTPHnD-InLTNziO6-1" value="" style="image;html=1;image=img/lib/clip_art/networking/Router_128x128.png" vertex="1" parent="1">
          <mxGeometry x="30" y="500" width="80" height="80" as="geometry" />
        </mxCell>
        <mxCell id="nfSVYTPHnD-InLTNziO6-3" value="" style="ellipse;shape=cloud;whiteSpace=wrap;html=1;fillColor=#f8cecc;strokeColor=#b85450;" vertex="1" parent="1">
          <mxGeometry x="410" y="-50" width="260" height="180" as="geometry" />
        </mxCell>
        <mxCell id="nfSVYTPHnD-InLTNziO6-4" value="" style="image;html=1;image=img/lib/clip_art/networking/Router_128x128.png" vertex="1" parent="1">
          <mxGeometry x="500" width="80" height="80" as="geometry" />
        </mxCell>
        <mxCell id="nfSVYTPHnD-InLTNziO6-5" value="" style="ellipse;shape=cloud;whiteSpace=wrap;html=1;fillColor=#dae8fc;strokeColor=#6c8ebf;" vertex="1" parent="1">
          <mxGeometry x="-60" y="240" width="260" height="180" as="geometry" />
        </mxCell>
        <mxCell id="nfSVYTPHnD-InLTNziO6-6" value="" style="image;html=1;image=img/lib/clip_art/networking/Router_128x128.png" vertex="1" parent="1">
          <mxGeometry x="30" y="290" width="80" height="80" as="geometry" />
        </mxCell>
        <mxCell id="nfSVYTPHnD-InLTNziO6-7" value="" style="ellipse;shape=cloud;whiteSpace=wrap;html=1;fillColor=#dae8fc;strokeColor=#6c8ebf;" vertex="1" parent="1">
          <mxGeometry x="410" y="730" width="260" height="180" as="geometry" />
        </mxCell>
        <mxCell id="nfSVYTPHnD-InLTNziO6-8" value="" style="image;html=1;image=img/lib/clip_art/networking/Router_128x128.png" vertex="1" parent="1">
          <mxGeometry x="500" y="780" width="80" height="80" as="geometry" />
        </mxCell>
        <mxCell id="nfSVYTPHnD-InLTNziO6-9" value="" style="ellipse;shape=cloud;whiteSpace=wrap;html=1;fillColor=#dae8fc;strokeColor=#6c8ebf;" vertex="1" parent="1">
          <mxGeometry x="1040" y="360" width="260" height="180" as="geometry" />
        </mxCell>
        <mxCell id="nfSVYTPHnD-InLTNziO6-10" value="" style="image;html=1;image=img/lib/clip_art/networking/Router_128x128.png" vertex="1" parent="1">
          <mxGeometry x="1140" y="410" width="80" height="80" as="geometry" />
        </mxCell>
        <mxCell id="nfSVYTPHnD-InLTNziO6-11" value="" style="ellipse;shape=cloud;whiteSpace=wrap;html=1;" vertex="1" parent="1">
          <mxGeometry x="170" y="140" width="760" height="570" as="geometry" />
        </mxCell>
        <mxCell id="nfSVYTPHnD-InLTNziO6-12" value="" style="image;html=1;image=img/lib/clip_art/networking/Router_128x128.png" vertex="1" parent="1">
          <mxGeometry x="330" y="410" width="80" height="80" as="geometry" />
        </mxCell>
        <mxCell id="nfSVYTPHnD-InLTNziO6-13" value="" style="image;html=1;image=img/lib/clip_art/networking/Router_128x128.png" vertex="1" parent="1">
          <mxGeometry x="530" y="410" width="80" height="80" as="geometry" />
        </mxCell>
        <mxCell id="nfSVYTPHnD-InLTNziO6-14" value="" style="image;html=1;image=img/lib/clip_art/networking/Router_128x128.png" vertex="1" parent="1">
          <mxGeometry x="530" y="250" width="80" height="80" as="geometry" />
        </mxCell>
        <mxCell id="nfSVYTPHnD-InLTNziO6-15" value="" style="image;html=1;image=img/lib/clip_art/networking/Router_128x128.png" vertex="1" parent="1">
          <mxGeometry x="740" y="410" width="80" height="80" as="geometry" />
        </mxCell>
        <mxCell id="nfSVYTPHnD-InLTNziO6-16" value="" style="image;html=1;image=img/lib/clip_art/networking/Router_128x128.png" vertex="1" parent="1">
          <mxGeometry x="540" y="570" width="80" height="80" as="geometry" />
        </mxCell>
        <mxCell id="nfSVYTPHnD-InLTNziO6-18" value="" style="endArrow=none;html=1;rounded=0;strokeWidth=4;entryX=1;entryY=0.588;entryDx=0;entryDy=0;entryPerimeter=0;" edge="1" parent="1" source="nfSVYTPHnD-InLTNziO6-10" target="nfSVYTPHnD-InLTNziO6-15">
          <mxGeometry width="50" height="50" relative="1" as="geometry">
            <mxPoint x="480" y="560" as="sourcePoint" />
            <mxPoint x="530" y="510" as="targetPoint" />
          </mxGeometry>
        </mxCell>
        <mxCell id="nfSVYTPHnD-InLTNziO6-19" value="" style="endArrow=none;html=1;rounded=0;strokeWidth=4;entryX=0.5;entryY=0;entryDx=0;entryDy=0;" edge="1" parent="1" target="nfSVYTPHnD-InLTNziO6-13">
          <mxGeometry width="50" height="50" relative="1" as="geometry">
            <mxPoint x="570" y="330" as="sourcePoint" />
            <mxPoint x="578" y="260" as="targetPoint" />
          </mxGeometry>
        </mxCell>
        <mxCell id="nfSVYTPHnD-InLTNziO6-21" value="" style="endArrow=none;html=1;rounded=0;strokeWidth=4;entryX=1;entryY=0.5;entryDx=0;entryDy=0;exitX=0;exitY=0.5;exitDx=0;exitDy=0;" edge="1" parent="1" source="nfSVYTPHnD-InLTNziO6-15" target="nfSVYTPHnD-InLTNziO6-13">
          <mxGeometry width="50" height="50" relative="1" as="geometry">
            <mxPoint x="580" y="340" as="sourcePoint" />
            <mxPoint x="580" y="420" as="targetPoint" />
          </mxGeometry>
        </mxCell>
        <mxCell id="nfSVYTPHnD-InLTNziO6-22" value="" style="endArrow=none;html=1;rounded=0;strokeWidth=4;entryX=0;entryY=0.5;entryDx=0;entryDy=0;" edge="1" parent="1" source="nfSVYTPHnD-InLTNziO6-1" target="nfSVYTPHnD-InLTNziO6-12">
          <mxGeometry width="50" height="50" relative="1" as="geometry">
            <mxPoint x="590" y="350" as="sourcePoint" />
            <mxPoint x="590" y="430" as="targetPoint" />
          </mxGeometry>
        </mxCell>
        <mxCell id="nfSVYTPHnD-InLTNziO6-23" value="" style="endArrow=none;html=1;rounded=0;strokeWidth=4;entryX=0;entryY=0.5;entryDx=0;entryDy=0;exitX=1;exitY=0.5;exitDx=0;exitDy=0;" edge="1" parent="1" source="nfSVYTPHnD-InLTNziO6-6" target="nfSVYTPHnD-InLTNziO6-12">
          <mxGeometry width="50" height="50" relative="1" as="geometry">
            <mxPoint x="600" y="360" as="sourcePoint" />
            <mxPoint x="600" y="440" as="targetPoint" />
          </mxGeometry>
        </mxCell>
        <mxCell id="nfSVYTPHnD-InLTNziO6-24" value="" style="endArrow=none;html=1;rounded=0;strokeWidth=4;entryX=-0.025;entryY=0.588;entryDx=0;entryDy=0;exitX=1;exitY=0.5;exitDx=0;exitDy=0;entryPerimeter=0;" edge="1" parent="1" source="nfSVYTPHnD-InLTNziO6-12" target="nfSVYTPHnD-InLTNziO6-13">
          <mxGeometry width="50" height="50" relative="1" as="geometry">
            <mxPoint x="610" y="370" as="sourcePoint" />
            <mxPoint x="610" y="450" as="targetPoint" />
          </mxGeometry>
        </mxCell>
        <mxCell id="nfSVYTPHnD-InLTNziO6-25" value="" style="endArrow=none;html=1;rounded=0;strokeWidth=4;entryX=0.5;entryY=0;entryDx=0;entryDy=0;exitX=0.5;exitY=1;exitDx=0;exitDy=0;" edge="1" parent="1" source="nfSVYTPHnD-InLTNziO6-16" target="nfSVYTPHnD-InLTNziO6-8">
          <mxGeometry width="50" height="50" relative="1" as="geometry">
            <mxPoint x="620" y="380" as="sourcePoint" />
            <mxPoint x="620" y="460" as="targetPoint" />
          </mxGeometry>
        </mxCell>
        <mxCell id="nfSVYTPHnD-InLTNziO6-26" value="" style="endArrow=none;html=1;rounded=0;strokeWidth=4;entryX=0.5;entryY=0;entryDx=0;entryDy=0;" edge="1" parent="1" source="nfSVYTPHnD-InLTNziO6-4" target="nfSVYTPHnD-InLTNziO6-14">
          <mxGeometry width="50" height="50" relative="1" as="geometry">
            <mxPoint x="630" y="390" as="sourcePoint" />
            <mxPoint x="630" y="470" as="targetPoint" />
          </mxGeometry>
        </mxCell>
        <mxCell id="nfSVYTPHnD-InLTNziO6-27" value="" style="endArrow=none;html=1;rounded=0;strokeWidth=4;entryX=0.5;entryY=1;entryDx=0;entryDy=0;exitX=0.5;exitY=0;exitDx=0;exitDy=0;" edge="1" parent="1" source="nfSVYTPHnD-InLTNziO6-16" target="nfSVYTPHnD-InLTNziO6-13">
          <mxGeometry width="50" height="50" relative="1" as="geometry">
            <mxPoint x="750" y="460" as="sourcePoint" />
            <mxPoint x="620" y="460" as="targetPoint" />
          </mxGeometry>
        </mxCell>
        <mxCell id="nfSVYTPHnD-InLTNziO6-28" value="" style="endArrow=none;html=1;rounded=0;strokeWidth=4;entryX=1;entryY=0;entryDx=0;entryDy=0;exitX=-0.025;exitY=0.588;exitDx=0;exitDy=0;exitPerimeter=0;" edge="1" parent="1" source="nfSVYTPHnD-InLTNziO6-17" target="nfSVYTPHnD-InLTNziO6-13">
          <mxGeometry width="50" height="50" relative="1" as="geometry">
            <mxPoint x="590" y="580" as="sourcePoint" />
            <mxPoint x="580" y="500" as="targetPoint" />
          </mxGeometry>
        </mxCell>
        <mxCell id="nfSVYTPHnD-InLTNziO6-29" value="p1" style="text;html=1;strokeColor=none;fillColor=none;align=center;verticalAlign=middle;whiteSpace=wrap;rounded=0;" vertex="1" parent="1">
          <mxGeometry x="510" y="400" width="60" height="30" as="geometry" />
        </mxCell>
        <mxCell id="nfSVYTPHnD-InLTNziO6-31" value="pe1" style="text;html=1;strokeColor=none;fillColor=none;align=center;verticalAlign=middle;whiteSpace=wrap;rounded=0;" vertex="1" parent="1">
          <mxGeometry x="600" y="570" width="60" height="30" as="geometry" />
        </mxCell>
        <mxCell id="nfSVYTPHnD-InLTNziO6-32" value="pe2" style="text;html=1;strokeColor=none;fillColor=none;align=center;verticalAlign=middle;whiteSpace=wrap;rounded=0;" vertex="1" parent="1">
          <mxGeometry x="760" y="390" width="60" height="30" as="geometry" />
        </mxCell>
        <mxCell id="nfSVYTPHnD-InLTNziO6-33" value="pe3" style="text;html=1;strokeColor=none;fillColor=none;align=center;verticalAlign=middle;whiteSpace=wrap;rounded=0;" vertex="1" parent="1">
          <mxGeometry x="590" y="250" width="60" height="30" as="geometry" />
        </mxCell>
        <mxCell id="nfSVYTPHnD-InLTNziO6-34" value="pe4" style="text;html=1;strokeColor=none;fillColor=none;align=center;verticalAlign=middle;whiteSpace=wrap;rounded=0;" vertex="1" parent="1">
          <mxGeometry x="340" y="390" width="60" height="30" as="geometry" />
        </mxCell>
        <mxCell id="nfSVYTPHnD-InLTNziO6-35" value="ce1-1" style="text;html=1;strokeColor=none;fillColor=none;align=center;verticalAlign=middle;whiteSpace=wrap;rounded=0;" vertex="1" parent="1">
          <mxGeometry x="560" y="780" width="60" height="30" as="geometry" />
        </mxCell>
        <mxCell id="nfSVYTPHnD-InLTNziO6-36" value="ce1-2" style="text;html=1;strokeColor=none;fillColor=none;align=center;verticalAlign=middle;whiteSpace=wrap;rounded=0;" vertex="1" parent="1">
          <mxGeometry x="1200" y="400" width="60" height="30" as="geometry" />
        </mxCell>
        <mxCell id="nfSVYTPHnD-InLTNziO6-37" value="ce2-1" style="text;html=1;align=center;verticalAlign=middle;resizable=0;points=[];autosize=1;strokeColor=none;fillColor=none;" vertex="1" parent="1">
          <mxGeometry x="570" width="50" height="30" as="geometry" />
        </mxCell>
        <mxCell id="nfSVYTPHnD-InLTNziO6-39" value="ce1-3" style="text;html=1;align=center;verticalAlign=middle;resizable=0;points=[];autosize=1;strokeColor=none;fillColor=none;" vertex="1" parent="1">
          <mxGeometry x="100" y="290" width="50" height="30" as="geometry" />
        </mxCell>
        <mxCell id="nfSVYTPHnD-InLTNziO6-40" value="ce2-2" style="text;html=1;align=center;verticalAlign=middle;resizable=0;points=[];autosize=1;strokeColor=none;fillColor=none;" vertex="1" parent="1">
          <mxGeometry x="10" y="500" width="50" height="30" as="geometry" />
        </mxCell>
        <mxCell id="nfSVYTPHnD-InLTNziO6-41" value="rr" style="text;html=1;align=center;verticalAlign=middle;resizable=0;points=[];autosize=1;strokeColor=none;fillColor=none;" vertex="1" parent="1">
          <mxGeometry x="810" y="240" width="30" height="30" as="geometry" />
        </mxCell>
        <mxCell id="nfSVYTPHnD-InLTNziO6-42" value="" style="ellipse;whiteSpace=wrap;html=1;aspect=fixed;fillColor=none;strokeColor=#6c8ebf;strokeWidth=5;" vertex="1" parent="1">
          <mxGeometry x="740" y="250" width="80" height="80" as="geometry" />
        </mxCell>
        <mxCell id="nfSVYTPHnD-InLTNziO6-17" value="" style="image;html=1;image=img/lib/clip_art/networking/Router_128x128.png" vertex="1" parent="1">
          <mxGeometry x="740" y="250" width="80" height="80" as="geometry" />
        </mxCell>
        <mxCell id="nfSVYTPHnD-InLTNziO6-43" value="AS64000" style="text;html=1;align=center;verticalAlign=middle;resizable=0;points=[];autosize=1;strokeColor=none;fillColor=none;fontSize=18;" vertex="1" parent="1">
          <mxGeometry x="740" y="650" width="100" height="40" as="geometry" />
        </mxCell>
        <mxCell id="nfSVYTPHnD-InLTNziO6-44" value="AS64001" style="text;html=1;align=center;verticalAlign=middle;resizable=0;points=[];autosize=1;strokeColor=none;fillColor=none;fontSize=18;" vertex="1" parent="1">
          <mxGeometry x="650" y="790" width="100" height="40" as="geometry" />
        </mxCell>
        <mxCell id="nfSVYTPHnD-InLTNziO6-46" value="AS64002" style="text;html=1;align=center;verticalAlign=middle;resizable=0;points=[];autosize=1;strokeColor=none;fillColor=none;fontSize=19;" vertex="1" parent="1">
          <mxGeometry x="1050" y="533" width="100" height="40" as="geometry" />
        </mxCell>
        <mxCell id="nfSVYTPHnD-InLTNziO6-47" value="AS64005" style="text;html=1;align=center;verticalAlign=middle;resizable=0;points=[];autosize=1;strokeColor=none;fillColor=none;fontSize=19;" vertex="1" parent="1">
          <mxGeometry x="120" y="220" width="100" height="40" as="geometry" />
        </mxCell>
        <mxCell id="nfSVYTPHnD-InLTNziO6-48" value="AS64003" style="text;html=1;align=center;verticalAlign=middle;resizable=0;points=[];autosize=1;strokeColor=none;fillColor=none;fontSize=19;" vertex="1" parent="1">
          <mxGeometry x="650" y="20" width="100" height="40" as="geometry" />
        </mxCell>
        <mxCell id="nfSVYTPHnD-InLTNziO6-49" value="AS64004" style="text;html=1;align=center;verticalAlign=middle;resizable=0;points=[];autosize=1;strokeColor=none;fillColor=none;fontSize=19;" vertex="1" parent="1">
          <mxGeometry x="120" y="600" width="100" height="40" as="geometry" />
        </mxCell>
      </root>
    </mxGraphModel>
  </diagram>
</mxfile>
